<svg xmlns:svg="http://www.w3.org/2000/svg" xmlns="http://www.w3.org/2000/svg" width="474.8" height="419.3" version="1.1"><defs><filter height="2" width="1.3" y="-0.5" x="-0.2" color-interpolation-filters="sRGB"><feConvolveMatrix order="5" kernelMatrix="0" result="result1" divisor="84.6" targetX="4" bias="5"/><feTurbulence numOctaves="1" baseFrequency="0.1" result="result0"/><feColorMatrix result="result2" values="1"/><feComposite in2="result2" in="result1" operator="in"/><feMorphology operator="dilate" radius="1"/><feColorMatrix values="1" result="result3"/><feOffset dx="0" dy="1.4" result="result4"/><feTurbulence numOctaves="2" baseFrequency="0" result="result8"/><feColorMatrix values="0" result="result91"/><feDisplacementMap in2="result91" in="result4" xChannelSelector="R" yChannelSelector="G" scale="100" result="result9"/><feComposite in2="result9" in="SourceGraphic"/></filter></defs><g transform="translate(-309.80842,-453.37542)"><g transform="matrix(-0.39602807,0,0,0.39602807,1192.8624,90.127393)"/><g transform="matrix(-0.33702927,0.04640419,0.04640419,0.33702927,1173.9051,460.86924)" fill="#000"><path d="m1399.3 803.9c-8.2-23.6-13.9-47.7-17.2-71.8-3.9-26-4.6-54.1 0.2-81.9 0 0 0 0 0 0 4.7-28.1 17-55.2 36.2-76.4 13.3-14.4 29.4-24.8 46.4-31 0 0 0 0 0 0 17-6.3 34.8-8.4 51.8-6.4 16.9 2.1 32.6 8.3 45.6 17.1 13.1 8.9 23.7 20.4 30.6 33.2 8 14.7 11.6 31 10.4 45.9 0 0 0 0 0 0-1.1 14.9-6.7 28.8-15.1 38.6-8.3 9.8-19.6 16.4-30 18.1 0 0 0 0 0 0-10.3 1.8-21-0.3-27.5-5-5.9-4-10.3-10.2-11.5-15.7-1.3-5.4-0.6-11.5 1.8-15 0.2 3.2 2 7.4 4.1 9.8 2 2.5 6 4.9 9.1 5.5 3.4 1.1 9.2 0.2 13.1-1.7 0 0 0 0 0 0 4.2-1.8 8.6-6.5 11.1-11.2 2.7-4.8 3.7-11.9 3-18.1 0 0 0 0 0 0-0.6-6.4-3.9-13.6-8.4-19.2-3.6-4.7-9.3-8.9-15.4-11.8-6.2-2.8-13.1-4.4-19-4-5.9 0.1-12.6 2.1-18.6 5.2 0 0 0 0 0 0-5.9 3.3-11.3 7.8-14.5 12.7-6 7.3-8.9 19.9-10.1 33.7 0 0 0 0 0 0-1.1 14.1 2.3 30.6 7.1 48.6 4.8 16.7 11.2 32.9 19.2 48.3zM1453.3 756.6 1453.3 756.6 1453.3 756.6 1453.3 756.6" fill="#000"/><path d="m1453.3 756.6c-6.3-12.8-13.8-24.7-22.2-35.7-9-12-20.1-23.5-33.3-32.7-13.3-9.3-29.2-15.2-45.4-15.9 0 0 0 0 0 0-11.2-0.4-21.8 2-31.1 6.4 0 0 0 0 0 0-9.3 4.4-17.3 10.8-23.3 18.4-5.9 7.7-9.7 16.5-11.3 25.3-1.6 8.8-1.2 17.8 1.2 25.7 2.8 9.1 7.9 17.1 14.4 22.6 6.5 5.5 14.4 8.8 21.7 9.3 7.3 0.5 14.5-1.4 19.3-4.9 0 0 0 0 0 0 4.8-3.5 8.3-8.6 9-13.2 0.7-4 0-8.3-1.8-10.9-1.7-2.7-4.4-4.9-6.8-5.2 1.2 1.4 2.2 3.8 2.3 5.6 0.2 1.8-0.4 4.4-1.4 5.9-0.9 1.8-3.6 3.8-5.9 4.6 0 0 0 0 0 0-2.4 1-6.1 0.9-9 0-3-0.8-6.3-3.3-8.5-6 0 0 0 0 0 0-2.3-2.8-3.9-7-4.4-11.1-0.5-3.4 0.1-7.3 1.4-11 1.4-3.6 3.5-7 5.9-9.3 2.4-2.4 5.9-4.3 9.6-5.5 0 0 0 0 0 0 3.7-1.1 7.7-1.5 11-0.8 0 0 0 0 0 0 5.3 0.5 11.6 4.4 17.7 9.4 6.1 5.2 11.5 13.2 16.9 22.3 4.8 8.6 8.8 17.7 11.9 27.1z" fill="#000"/><path d="m1459.9 626.8c7.6-12 13.9-24.6 18.9-37.6 5.5-13.9 9.6-29.4 10.5-45.4 1-16.2-2.2-32.8-10.1-47.1 0 0 0 0 0 0-5.5-9.7-13.1-17.6-21.7-23.2 0 0 0 0 0 0-8.6-5.7-18.2-9.2-27.9-10.3-9.7-1.1-19.1 0.3-27.5 3.5-8.4 3.2-15.8 8.2-21.3 14.4-6.4 7.1-10.5 15.7-11.8 24.1-1.3 8.4 0 16.8 3.4 23.3 3.3 6.5 8.7 11.6 14.3 13.9 0 0 0 0 0 0 5.5 2.3 11.7 2.6 15.9 0.8 3.8-1.5 7-4.3 8.4-7.2 1.4-2.8 1.8-6.3 0.9-8.5-0.5 1.8-2.1 3.9-3.6 4.9-1.5 1.1-3.9 1.9-5.8 1.9-2 0.1-5.1-1.1-7-2.7 0 0 0 0 0 0-2.1-1.5-3.9-4.7-4.7-7.7-0.8-3-0.5-7.1 0.7-10.4 0 0 0 0 0 0 1.2-3.4 3.9-7 7.1-9.6 2.6-2.1 6.3-3.7 10.1-4.5 3.8-0.7 7.8-0.7 11 0.2 3.3 0.8 6.7 2.8 9.7 5.3 0 0 0 0 0 0 2.9 2.6 5.2 5.8 6.4 8.9 0 0 0 0 0 0 2.4 4.8 2.3 12.2 1.2 20-1.3 8-5.2 16.7-10.3 26-4.8 8.6-10.5 16.8-16.9 24.3z" fill="#000"/><path d="m1454.7 525.6c0-7.3 0.7-14.6 2.1-21.6 1.4-7.6 3.9-15.4 7.9-22.7 4-7.3 10-13.7 17.4-17.7 0 0 0 0 0 0 5.1-2.7 10.5-4.1 15.8-4.2 0 0 0 0 0 0 5.3-0.1 10.5 1 15 3.2 4.5 2.2 8.2 5.4 11 9.1 2.8 3.7 4.6 7.9 5.3 12.2 0.8 4.8 0.2 9.7-1.5 13.7-1.7 4-4.6 7.3-7.9 9.3-3.2 1.9-7 2.7-10.1 2.1 0 0 0 0 0 0-3-0.5-5.8-2.1-7.2-4-1.2-1.7-1.9-3.8-1.7-5.5 0.2-1.6 0.9-3.3 1.9-4-0.3 0.9-0.2 2.3 0.2 3.1 0.3 0.9 1.2 1.9 2 2.4 0.9 0.6 2.5 0.9 3.8 0.8 0 0 0 0 0 0 1.3-0.1 3-1 4.2-2.1 1.2-1.1 2.2-2.9 2.6-4.7 0 0 0 0 0 0 0.4-1.8 0.2-4.1-0.5-6.1-0.6-1.7-1.7-3.4-3.2-4.8-1.5-1.4-3.2-2.5-4.9-2.9-1.6-0.5-3.7-0.6-5.7-0.3 0 0 0 0 0 0-2 0.3-3.9 1.1-5.3 2.1 0 0 0 0 0 0-2.4 1.5-4.4 4.7-6 8.4-1.6 3.8-2.3 8.7-2.7 14.2-0.3 5.1 0 10.2 0.7 15.2z" fill="#000"/><path d="m1459.5 664.6c-6-16.9-13.6-32.9-22.6-47.8-9.5-16.3-21.7-32.3-36.9-45.7-15.2-13.6-34.3-23.2-54.5-26.5 0 0 0 0 0 0-13.9-2.1-27.5-0.6-39.8 3.5 0 0 0 0 0 0-12.3 4.1-23.2 11-31.8 19.7-8.5 8.8-14.5 19.2-17.8 30-3.3 10.8-4.1 22-2.2 32.3 2.1 11.8 7.4 22.5 14.8 30.4 7.3 7.8 16.7 13.1 25.8 14.8 9 1.7 18.3 0.4 24.9-3.4 0 0 0 0 0 0 6.6-3.6 11.6-9.6 13.1-15.2 1.5-4.9 1.2-10.3-0.6-13.9-1.7-3.6-4.8-6.7-7.7-7.5 1.3 1.9 2.2 5 2.1 7.3 0 2.3-1.2 5.4-2.6 7.2-1.4 2.1-5 4.2-8.1 4.9 0 0 0 0 0 0-3.1 0.9-7.7 0.2-11.2-1.3-3.6-1.5-7.4-5-9.8-8.8 0 0 0 0 0 0-2.5-3.8-3.9-9.3-4-14.5-0.1-4.3 1.2-9.1 3.3-13.5 2.2-4.3 5.3-8.3 8.8-10.8 3.3-2.6 8-4.5 12.8-5.5 0 0 0 0 0 0 4.8-0.8 9.8-0.7 13.8 0.6 0 0 0 0 0 0 6.6 1.4 13.9 7.2 20.7 14.3 6.9 7.4 12.5 18.1 17.8 30.4 4.8 11.5 8.5 23.4 11 35.6z" fill="#000"/><path d="m1437.9 498.7c-7.1-1.9-13.9-4.4-20.3-7.5-7-3.3-13.9-7.7-20-13.4-6.1-5.7-10.7-13.2-12.8-21.3 0 0 0 0 0 0-1.3-5.6-1.3-11.2 0-16.4 0 0 0 0 0 0 1.2-5.2 3.6-9.9 6.9-13.7 3.3-3.8 7.3-6.6 11.6-8.4 4.3-1.7 8.8-2.5 13.1-2.1 4.9 0.4 9.5 2.2 12.9 4.9 3.5 2.7 5.9 6.3 6.9 10 1 3.6 0.8 7.4-0.5 10.3 0 0 0 0 0 0-1.2 2.8-3.5 5.1-5.7 5.9-1.9 0.8-4.2 0.9-5.7 0.3-1.5-0.6-2.9-1.7-3.4-2.9 0.8 0.5 2.1 0.7 3.1 0.6 0.9-0.1 2.2-0.7 2.8-1.3 0.8-0.7 1.5-2.2 1.7-3.5 0 0 0 0 0 0 0.2-1.3-0.2-3.2-0.9-4.5-0.7-1.4-2.3-2.8-3.9-3.7 0 0 0 0 0 0-1.7-0.9-3.9-1.3-6.1-1.1-1.7 0.1-3.7 0.8-5.4 1.8-1.7 1.1-3.2 2.5-4.1 4-0.9 1.5-1.6 3.4-1.8 5.4 0 0 0 0 0 0-0.2 2 0.1 4 0.7 5.6 0 0 0 0 0 0 0.8 2.6 3.4 5.4 6.6 7.9 3.3 2.6 7.8 4.4 13 6.2 4.9 1.5 9.9 2.6 14.9 3.2z" fill="#000"/><path d="m1349 579.6c-7.1-1.9-13.9-4.4-20.3-7.5-7-3.3-13.9-7.7-20-13.4-6.1-5.7-10.7-13.2-12.8-21.3 0 0 0 0 0 0-1.3-5.6-1.3-11.2 0-16.4 0 0 0 0 0 0 1.2-5.2 3.6-9.9 6.9-13.7 3.3-3.8 7.3-6.6 11.6-8.4 4.3-1.7 8.8-2.5 13.1-2.1 4.9 0.4 9.5 2.2 12.9 4.9 3.5 2.7 5.9 6.3 6.9 10 1 3.6 0.8 7.4-0.5 10.3 0 0 0 0 0 0-1.2 2.8-3.5 5.1-5.7 5.9-1.9 0.8-4.2 0.9-5.7 0.3-1.5-0.6-2.9-1.7-3.4-2.9 0.8 0.5 2.1 0.7 3.1 0.6 0.9-0.1 2.2-0.7 2.8-1.3 0.8-0.7 1.5-2.2 1.7-3.5 0 0 0 0 0 0 0.2-1.3-0.2-3.2-0.9-4.5-0.7-1.4-2.3-2.8-3.9-3.7 0 0 0 0 0 0-1.7-0.9-3.9-1.3-6.1-1.1-1.7 0.1-3.7 0.8-5.4 1.8-1.7 1.1-3.2 2.5-4.1 4-0.9 1.5-1.6 3.4-1.8 5.4 0 0 0 0 0 0-0.2 2 0.1 4 0.7 5.6 0 0 0 0 0 0 0.8 2.6 3.4 5.4 6.6 7.9 3.3 2.6 7.8 4.4 13 6.2 4.9 1.5 9.9 2.6 14.9 3.2z" fill="#000"/><path d="m1278.8 588.7c-2.8 2.4-5.8 4.4-8.9 6.2-3.3 1.9-7.1 3.5-11.2 4.3-4.1 0.9-8.4 0.6-12.4-0.9 0 0 0 0 0 0-2.7-1-4.9-2.7-6.7-4.7 0 0 0 0 0 0-1.8-2-3-4.3-3.6-6.7-0.6-2.4-0.6-4.9-0.1-7.1 0.5-2.3 1.5-4.3 2.9-6 1.6-1.9 3.6-3.2 5.7-3.9 2.1-0.6 4.3-0.6 6.1 0 1.8 0.6 3.3 1.8 4.1 3.1 0 0 0 0 0 0 0.8 1.3 1.1 2.9 0.8 4-0.2 1-0.8 2-1.5 2.4-0.7 0.5-1.5 0.7-2.1 0.5 0.4-0.2 0.9-0.7 1.1-1.1 0.2-0.4 0.3-1.1 0.3-1.5 0-0.5-0.5-1.3-0.9-1.7 0 0 0 0 0 0-0.5-0.5-1.3-0.8-2.1-0.9-0.8-0.1-1.8 0.1-2.6 0.6 0 0 0 0 0 0-0.8 0.4-1.6 1.3-2.2 2.2-0.5 0.7-0.7 1.7-0.8 2.7 0 1 0.1 2 0.5 2.8 0.3 0.8 1 1.6 1.7 2.3 0 0 0 0 0 0 0.8 0.6 1.7 1.1 2.5 1.3 0 0 0 0 0 0 1.3 0.4 3.2 0.1 5.1-0.4 2-0.6 4.1-1.9 6.3-3.6 2-1.5 3.9-3.3 5.6-5.2z" fill="#000"/></g><path d="m727.3 493.3c-8.1 0.4-25.2-0.1-27.7 1 3.3 0 19.2 0.5 8.4 1.9-4.1 0.2-8.1 1-1.4 0.9 10 0.5-6.7 1.5-9.7 1.3-3.7-0.4-8.3 1.5-1.8 1.3 4.1 0.2 13.4-0.1 14.2 0.6-10.5 0.7-21 0.6-31.5 0.6 6 2.4 22 0.5 22.1 3.3-7.2 1.1-22 0.6-24.5 1.3 18.8 0.9 37.7 0.1 56.5 0.7 4.2-0.3 14.1 2.1 7.1-3.7-3.3-3.7-7.3-6.9-11.7-9.2zm-26.6 3.5c-260.6 250.6-130.3 125.3 0 0zm42.3 11.1c-23.8 0.3-47.5 0.5-71.3 0.8-4.7 4.3-7.2 13.1 3.4 12.9 21 1.2 41.9 2.6 62.8 4.9-24.1 0.1-48.1 0.5-72.2 0.9-1.7 6.7-0.3 13.6 9.8 12.7 8.4 0.2 23 0 27.4 1.4-11.9 0.4-23.8 0.3-35.7 0.5 5.7 22.7 32.9 36.5 54.7 27.9 21.5-7.3 33.8-33.9 24.8-54.9-1-2.5-2.2-4.9-3.7-7.2z" fill="#1a1a1a"/><path d="m526.3 668.7c9.2-10.9 17.1-22.5 23.8-34.6 7.4-13 13.5-27.8 16.6-43.6 3.2-15.9 2.2-32.8-3.6-48 0 0 0 0 0 0-4.1-10.4-10.5-19.2-18.3-25.9 0 0 0 0 0 0-7.7-6.8-16.8-11.6-26.2-14-9.4-2.4-19-2.3-27.7-0.3-8.8 2-16.8 6-23.1 11.4-7.3 6.2-12.5 14.1-15 22.3-2.5 8.1-2.3 16.7 0.1 23.6 2.4 6.9 7 12.7 12.2 15.7 0 0 0 0 0 0 5.1 3.1 11.2 4.1 15.6 3 3.9-0.9 7.6-3.3 9.3-6 1.8-2.6 2.7-6 2.1-8.3-0.8 1.7-2.6 3.6-4.2 4.4-1.6 0.9-4.2 1.4-6 1.1-2-0.1-4.9-1.8-6.6-3.6 0 0 0 0 0 0-1.8-1.8-3.3-5.2-3.6-8.2-0.4-3.1 0.5-7.1 2.1-10.2 0 0 0 0 0 0 1.6-3.3 4.8-6.4 8.4-8.5 2.9-1.8 6.7-2.8 10.6-3.1 3.9-0.2 7.8 0.4 10.9 1.7 3.1 1.2 6.3 3.7 8.8 6.6 0 0 0 0 0 0 2.5 3 4.4 6.5 5.1 9.7 0 0 0 0 0 0 1.7 5.1 0.6 12.4-1.5 20-2.3 7.7-7.5 15.8-13.7 24.4-6 7.9-12.7 15.2-20.1 21.7z" fill="#000"/><path d="m569.5 575c-26.8 2.9-52.1 14.8-65.6 35.9-4.2 6.5-7.7 13.5-10.7 20.8l0.9 1.1 57.4 0c7.1-12.8 13-27.3 16.1-42.7 1-5 1.6-10 1.8-15.1z" fill="#fff"/><path d="m442.1 835.9c-4.9-24.5-7.2-49.1-7.2-73.5-0.3-26.3 2.8-54.2 11.4-81.1 8.5-27.2 24.4-52.4 46.2-70.8 0 0 0 0 0 0 15.1-12.5 32.5-20.5 50.2-24.4 0 0 0 0 0 0 17.6-3.9 35.7-3.6 52.2 0.8 16.5 4.4 31.1 12.6 42.9 23.2 11.7 10.6 20.7 23.5 25.8 37.1 5.9 15.7 7.2 32.3 4.1 46.9 0 0 0 0 0 0-3.1 14.6-10.6 27.6-20.2 36.1-9.6 8.5-21.6 13.5-32.2 13.8 0 0 0 0 0 0-10.5 0.4-20.8-3.1-26.6-8.7 0 0 0 0 0 0-5.3-4.8-8.8-11.5-9.3-17.1-0.5-5.5 1-11.5 3.8-14.6-0.3 3.2 0.9 7.6 2.7 10.3 1.7 2.7 5.3 5.6 8.3 6.7 3.3 1.5 9 1.4 13.2 0.1 4.4-1.2 9.4-5.3 12.5-9.6 3.3-4.4 5.3-11.3 5.4-17.6 0 0 0 0 0 0 0.2-6.4-2-14-5.7-20.2-2.9-5.2-8-10.1-13.7-13.8-5.8-3.6-12.3-6.1-18.2-6.6-5.9-0.8-12.8 0.3-19.2 2.6 0 0 0 0 0 0-6.3 2.5-12.2 6.2-16.1 10.6 0 0 0 0 0 0-6.9 6.4-11.5 18.5-14.6 32 0 0 0 0 0 0-3 13.8-1.9 30.6 0.4 49.1 2.5 17.2 6.7 34.1 12.4 50.5zM520.7 706.2 520.7 706.2 520.7 706.2 520.7 706.2" fill="#000"/><path d="m520.7 706.2c-3.7-17.5-9-34.4-15.9-50.5-7.2-17.4-17.1-34.9-30.3-50.3-13.3-15.5-30.8-27.7-50.4-33.7 0 0 0 0 0 0-13.5-4-27.2-4.4-39.9-2 0 0 0 0 0 0-12.7 2.4-24.5 7.7-34.2 15.2-9.7 7.5-17 17.1-21.8 27.3-4.8 10.3-7 21.3-6.6 31.7 0.5 12 4.3 23.3 10.5 32.1 6.2 8.7 14.7 15.2 23.5 18.1 8.7 2.9 18 2.9 25.1 0.1 0 0 0 0 0 0 7-2.7 12.8-7.9 15.1-13.2 2.1-4.6 2.6-10.1 1.3-13.9-1.2-3.8-3.9-7.3-6.6-8.5 1.1 2 1.5 5.3 1.1 7.6-0.3 2.3-1.9 5.2-3.6 6.7-1.7 1.9-5.6 3.5-8.7 3.8 0 0 0 0 0 0-3.2 0.4-7.7-0.8-11-2.8-3.4-2-6.7-5.9-8.5-10.1 0 0 0 0 0 0-2-4.2-2.6-9.8-1.9-14.9 0.5-4.2 2.4-8.9 5.1-12.9 2.8-4 6.4-7.5 10.2-9.5 3.7-2.1 8.5-3.4 13.4-3.7 0 0 0 0 0 0 4.9-0.2 9.8 0.6 13.6 2.4 0 0 0 0 0 0 6.4 2.3 12.8 9 18.6 17 5.8 8.3 9.9 19.7 13.5 32.5 3.2 12 5.2 24.4 6 36.8z" fill="#000"/><path d="m436.4 694.9c-1.9 40.7 22.1 48.8 5.6 69.7l10.9 19.3 42.8 12.7c-2.7-14-6.8-27.5-12.1-40.3-5.5-13.9-13.2-27.9-23.6-40.2-9.2-11.1-10.3-15.8-23.7-21.1z" fill="#fff"/><path d="m502 796.5c-4.5-13.5-10.3-26.4-17.1-38.4-7.3-13.1-16.7-26-28.5-36.9-11.9-11-26.8-19-42.8-22 0 0 0 0 0 0-11-1.9-21.9-1-31.7 2.1 0 0 0 0 0 0-9.8 3.1-18.6 8.3-25.6 15.1-6.9 6.8-11.8 15-14.7 23.6-2.8 8.5-3.6 17.4-2.3 25.6 1.5 9.4 5.5 18 11.2 24.4 5.7 6.3 13 10.6 20.2 12.2 7.1 1.5 14.5 0.6 19.8-2.2 0 0 0 0 0 0 5.3-2.8 9.4-7.4 10.7-11.8 1.3-3.8 1.1-8.2-0.2-11.1-1.3-2.9-3.7-5.4-6-6.1 1 1.5 1.7 4 1.5 5.9-0.1 1.8-1 4.3-2.2 5.7-1.2 1.7-4.1 3.3-6.5 3.8 0 0 0 0 0 0-2.5 0.6-6.2 0.1-8.9-1.2-2.9-1.2-5.8-4.1-7.6-7.2 0 0 0 0 0 0-1.9-3.1-2.9-7.5-2.9-11.6 0-3.4 1.1-7.2 2.9-10.7 1.8-3.4 4.4-6.5 7.2-8.4 2.7-2 6.4-3.5 10.2-4.1 0 0 0 0 0 0 3.8-0.6 7.8-0.4 11 0.7 0 0 0 0 0 0 5.2 1.2 10.9 5.9 16.2 11.7 5.4 6 9.6 14.6 13.7 24.4 3.6 9.2 6.3 18.7 8.1 28.5zM534.9 567.8 534.9 567.8 534.9 567.8 534.9 567.8" fill="#000"/><path d="m534.9 567.8c1-7.3 2.7-14.3 5-21.1 2.4-7.3 6-14.8 10.9-21.4 5-6.7 11.8-12.2 19.6-15.2 0 0 0 0 0 0 5.4-2 11-2.6 16.3-2 0 0 0 0 0 0 5.3 0.6 10.2 2.4 14.4 5.2 4.2 2.8 7.4 6.5 9.7 10.5 2.3 4.1 3.5 8.5 3.6 12.8 0.1 4.9-1.1 9.7-3.4 13.4-2.3 3.8-5.6 6.6-9.1 8.1-3.5 1.5-7.3 1.7-10.3 0.8 0 0 0 0 0 0-2.9-0.9-5.5-2.9-6.5-5-1-1.8-1.3-4-0.9-5.6 0.4-1.6 1.4-3.1 2.5-3.7-0.4 0.9-0.5 2.2-0.2 3.1 0.2 0.9 0.9 2.1 1.7 2.7 0.8 0.7 2.4 1.3 3.7 1.3 0 0 0 0 0 0 1.3 0.1 3.1-0.6 4.4-1.5 1.3-0.9 2.5-2.6 3.2-4.4 0 0 0 0 0 0 0.7-1.8 0.8-4.1 0.4-6.1-0.3-1.7-1.2-3.6-2.5-5.1-1.3-1.6-2.8-2.9-4.4-3.6-1.6-0.8-3.6-1.1-5.6-1.1 0 0 0 0 0 0-2 0.1-4 0.5-5.5 1.4 0 0 0 0 0 0-2.5 1.1-5 4-7.1 7.5-2.1 3.6-3.5 8.3-4.6 13.7-0.9 5-1.4 10.1-1.4 15.2z" fill="#000"/><path d="m521.9 538.9c-6.8-2.8-13.2-6.2-19.1-10.2-6.5-4.2-12.8-9.5-17.9-16-5.2-6.5-8.8-14.5-9.7-22.8 0 0 0 0 0 0-0.6-5.7 0.3-11.3 2.2-16.2 0 0 0 0 0 0 1.9-4.9 4.9-9.3 8.7-12.6 3.8-3.3 8.2-5.5 12.6-6.7 4.5-1.1 9.1-1.2 13.3-0.3 4.8 1.1 9.1 3.5 12.1 6.7 3.1 3.1 5 7.1 5.5 10.8 0.5 3.7-0.2 7.5-1.9 10.1 0 0 0 0 0 0-1.6 2.6-4.2 4.6-6.5 5.1-2 0.5-4.3 0.3-5.7-0.5-1.4-0.8-2.6-2.1-2.9-3.3 0.7 0.6 2 1 3 1 0.9 0 2.2-0.4 3-0.9 0.9-0.5 1.8-2 2.2-3.2 0 0 0 0 0 0 0.4-1.3 0.3-3.2-0.3-4.6-0.5-1.5-1.9-3.1-3.4-4.2 0 0 0 0 0 0-1.5-1.1-3.7-1.8-5.9-1.9-1.7-0.1-3.8 0.3-5.6 1.1-1.8 0.8-3.5 2-4.6 3.4-1.1 1.3-2 3.2-2.5 5.1 0 0 0 0 0 0-0.4 1.9-0.5 4 0 5.7 0 0 0 0 0 0 0.4 2.7 2.7 5.8 5.4 8.8 2.9 3 7.2 5.5 12.1 7.9 4.6 2.2 9.4 3.9 14.3 5.2z" fill="#000"/><path d="m422.8 606.8c-6.8-2.8-13.2-6.2-19.1-10.2-6.5-4.2-12.8-9.5-17.9-16-5.2-6.5-8.8-14.5-9.7-22.8 0 0 0 0 0 0-0.6-5.7 0.3-11.3 2.2-16.2 0 0 0 0 0 0 1.9-4.9 4.9-9.3 8.7-12.6 3.8-3.3 8.2-5.5 12.6-6.7 4.5-1.1 9.1-1.2 13.3-0.3 4.8 1.1 9.1 3.5 12.1 6.7 3.1 3.1 5 7.1 5.5 10.8 0.5 3.7-0.2 7.5-1.9 10.1 0 0 0 0 0 0-1.6 2.6-4.2 4.6-6.5 5.1-2 0.5-4.3 0.3-5.7-0.5-1.4-0.8-2.6-2.1-2.9-3.3 0.7 0.6 2 1 3 1 0.9 0 2.2-0.4 3-0.9 0.9-0.5 1.8-2 2.2-3.2 0 0 0 0 0 0 0.4-1.3 0.3-3.2-0.3-4.6-0.5-1.5-1.9-3.1-3.4-4.2 0 0 0 0 0 0-1.5-1.1-3.7-1.8-5.9-1.9-1.7-0.1-3.8 0.3-5.6 1.1-1.8 0.8-3.5 2-4.6 3.4-1.1 1.3-2 3.2-2.5 5.1 0 0 0 0 0 0-0.4 1.9-0.5 4 0 5.7 0 0 0 0 0 0 0.4 2.7 2.7 5.8 5.4 8.8 2.9 3 7.2 5.5 12.1 7.9 4.6 2.2 9.4 3.9 14.3 5.2z" fill="#000"/><path d="m352 606.3c-3.1 2-6.3 3.6-9.6 4.9-3.6 1.4-7.5 2.5-11.7 2.8-4.2 0.3-8.4-0.5-12.1-2.5 0 0 0 0 0 0-2.5-1.4-4.5-3.3-6-5.5 0 0 0 0 0 0-1.5-2.2-2.4-4.7-2.7-7.2-0.3-2.5 0.1-4.9 0.9-7.1 0.8-2.2 2.1-4.1 3.7-5.5 1.8-1.6 4-2.7 6.2-3.1 2.2-0.3 4.3 0 6 0.8 1.7 0.9 3 2.2 3.6 3.7 0 0 0 0 0 0 0.6 1.4 0.7 3 0.2 4.1-0.4 1-1.1 1.8-1.8 2.2-0.7 0.4-1.6 0.5-2.2 0.3 0.5-0.1 1-0.5 1.3-0.9 0.3-0.4 0.5-1 0.5-1.5 0-0.5-0.3-1.3-0.7-1.8 0 0 0 0 0 0-0.4-0.5-1.2-1-2-1.2-0.8-0.2-1.8-0.1-2.7 0.2 0 0 0 0 0 0-0.9 0.3-1.8 1-2.5 1.8-0.5 0.7-1 1.6-1.2 2.6-0.2 1-0.2 2 0.1 2.8 0.2 0.8 0.7 1.7 1.4 2.5 0 0 0 0 0 0 0.7 0.7 1.5 1.3 2.3 1.6 0 0 0 0 0 0 1.2 0.6 3.1 0.6 5.1 0.3 2-0.3 4.3-1.4 6.7-2.7 2.2-1.3 4.3-2.7 6.2-4.4z" fill="#000"/><path d="m607.1 755.7c-49.1 0.3-100.6 12.4-138.6 44.8-18.8 16.2-33.1 40-31.2 65.6 4-6.7 23.4-24.5 20.6-6-2.2 6.6-1.1 14.3 4.1 4.7 3.7-7.9 21.4-25.8 21.1-7.1 4-6.5 17.6-14.8 15.9-1-1.2 13.3 9.5 7.1 13.5-0.1 7.7 10.5 27.1 16.1 27.1 16.1 0 0 10.4-17.1 7.2-19.7 7.6 10.8 22.1 13.9 34.4 15.8-2.6-1.8-11.7-17.1 0-9.6 6.5 5.4 29 11.7 18.2-1.5 8.3 1.4 22.4 10.7 28.3 4.3-7.6-9.7 9.9 7.5 16.1 4.6 15.4-2-3.6-13.9-3.3-18.4 9.9 7.9 23.1 6.2 34.9 6.2 4.4-2.9-8.3-10.6 2.3-6.4 13.7 5.9 25.4 18 41 18.5 18.8-3.6-19.9-21.6-3-18.5 10.5 4.8 21 15.1 33.1 11.8-4.5-2.7-17.1-10.2-4.5-10.6 10.7-2.5 26.6 12.5 32.3 7.2-3.2-34.5-30.9-60.3-60-75.6-33.6-17.6-71.9-25-109.6-25.1z" fill="#000"/><g transform="matrix(-0.88356313,0.06169277,-0.06169277,-0.88356313,2142.3732,962.12762)"><path d="m1118.3 693.9c0 16.5-8.5 29.9-19 29.9-10.5 0-19-13.4-19-29.9 0-16.5 8.5-29.9 19-29.9 10.5 0 19 13.4 19 29.9z" transform="matrix(-0.99757127,-0.06965313,0.06965313,-0.99757127,2721.1785,1308.5906)" fill="#000"/><path transform="matrix(-0.99757127,-0.06965313,0.06965313,-0.99757127,2687.07,1305.1185)" d="m1063.9 683.6c0 4.2-3.4 7.6-7.6 7.6-4.2 0-7.6-3.4-7.6-7.6 0-4.2 3.4-7.6 7.6-7.6 4.2 0 7.6 3.4 7.6 7.6zM1063.9 683.6 1063.9 683.6 1063.9 683.6 1063.9 683.6" fill="#fff"/><path d="m1063.9 683.6c0 4.2-3.4 7.6-7.6 7.6-4.2 0-7.6-3.4-7.6-7.6 0-4.2 3.4-7.6 7.6-7.6 4.2 0 7.6 3.4 7.6 7.6z" transform="matrix(-0.99757127,-0.06965313,0.06965313,-0.99757127,2669.7066,1303.9061)" fill="#fff"/></g><g transform="matrix(-0.66591121,0.04649572,-0.04649572,-0.66591121,1720.0181,777.98073)"><path transform="matrix(-0.99757127,-0.06965313,0.06965313,-0.99757127,2721.1785,1308.5906)" d="m1118.3 693.9c0 16.5-8.5 29.9-19 29.9-10.5 0-19-13.4-19-29.9 0-16.5 8.5-29.9 19-29.9 10.5 0 19 13.4 19 29.9z" fill="#000"/><path d="m1063.9 683.6c0 4.2-3.4 7.6-7.6 7.6-4.2 0-7.6-3.4-7.6-7.6 0-4.2 3.4-7.6 7.6-7.6 4.2 0 7.6 3.4 7.6 7.6zM1063.9 683.6 1063.9 683.6 1063.9 683.6 1063.9 683.6" transform="matrix(-0.99757127,-0.06965313,0.06965313,-0.99757127,2687.07,1305.1185)" fill="#fff"/><path transform="matrix(-0.99757127,-0.06965313,0.06965313,-0.99757127,2669.7066,1303.9061)" d="m1063.9 683.6c0 4.2-3.4 7.6-7.6 7.6-4.2 0-7.6-3.4-7.6-7.6 0-4.2 3.4-7.6 7.6-7.6 4.2 0 7.6 3.4 7.6 7.6z" fill="#fff"/></g></g></svg>